<svg viewBox="0 0 640 135" fill="none" xmlns="http://www.w3.org/2000/svg">
  <path d="M195.7 13.3C192.9 20.5 187.4 34.4 183.5 44C177 59.8 176 61.6 173.1 63C169.4 64.7 168.4 67.8 170.9 69.6C172.4 70.7 172.4 71.2 170.3 76.2C169.1 79.1 167.7 81.9 167.3 82.4C166.4 83.4 166.3 83 163 67C158.3 44.8 157.3 41.2 155.7 40.6C154.8 40.2 153.5 40.5 152.8 41.1C152.1 41.7 148.9 50 145.7 59.6C142.5 69.1 139.7 76.6 139.3 76.2C139 75.8 137.3 70.9 135.5 65.4C131.2 51.5 129.2 50.8 124.4 61.5C122.9 64.9 120.5 68.5 119.3 69.4C115.9 71.8 108.6 71.4 84.8 67.9C59.1 64.1 37 63.5 26.4 66.3C16.9 68.9 10.1 72.5 5.6 77.4C-1.1 84.6 -2 93 3.9 93C6 93 6.5 92.3 7.5 88.5C9.1 82 15.2 76.7 24.6 73.8C31.1 71.8 33.9 71.5 49.4 71.5C63.7 71.5 70.2 72.1 84.9 74.4C114.2 79.1 122.7 78.4 127.1 71C128 69.4 129.1 68 129.4 68C129.7 68 131.6 72.8 133.5 78.8C136.7 88.5 137.3 89.5 139.6 89.8C142.1 90.1 142.4 89.6 147.9 73C151 63.6 153.8 56 154 56.2C154.6 56.9 162.3 92.3 162.6 96C162.9 99.1 163.2 99.5 165.8 99.5C168.6 99.5 168.9 99 174.7 84.9L180.6 70.3L192.2 69.6C198.7 69.3 205.1 68.7 206.5 68.4C208.9 67.9 209.1 68.2 210.9 74.7C211.9 78.4 214 85 215.6 89.2C221 103.4 230.6 110.1 236.9 103.9C239.6 101.2 237.9 98.5 233.4 98.5C227.6 98.4 223.2 91.2 218.4 73.9C216.3 66.2 215.9 66.8 224.4 65.4C230.9 64.4 241.7 60.6 245.3 58.1C248.6 55.7 249.6 51.4 247 50.4C246.2 50.1 243.1 51.3 240.1 52.9C233.7 56.6 216.5 60.8 215.4 58.9C214.5 57.6 210.8 30.9 209.3 15.5C208 1.8 207.3 0 203.6 0C200.8 0 200.5 0.5 195.7 13.3Z" stroke="currentColor" stroke-width="2" stroke-linecap="round" stroke-linejoin="round" />
  <path d="M326.4 5.1C323.4 5.6 318.8 5.7 316.3 5.4C312.5 4.9 311.4 5.2 310.3 6.7C309.5 7.7 306.5 9.6 303.6 10.9C296.9 14 295 16.2 295.8 19.5C296.6 22.8 299.3 22.7 305.1 19.3L309.7 16.6L309 28.6C308.6 35.1 307.6 48.6 306.8 58.5C305.9 68.4 305.2 83.6 305.1 92.4C304.9 106.5 305.1 108.4 306.6 109.4C307.9 110.2 308.9 110.2 310.1 109.4C311.7 108.4 312 105.8 312.6 88.9C312.9 78.2 314 62.3 314.8 53.5C315.7 44.7 316.7 32.4 317.1 26.2C317.7 15.1 317.8 14.8 320.3 13.8C321.7 13.2 327.9 12.5 334 12.3C343.5 11.8 346.2 12 352 13.8C363.8 17.4 369.4 23.9 369.4 33.9C369.4 50.2 349.4 64.8 324.5 66.8C315.4 67.6 313.6 68.7 314.7 73.1C315.5 76.2 343.1 96.8 355.1 103.2C370.9 111.6 384.4 113.2 395 107.8C397.7 106.4 401.1 104.8 402.7 104.1C405.4 103.1 411.7 94.2 416.2 85.3C418.3 81.3 418.6 81.2 425.1 80.1C434.1 78.6 446.3 77.1 449.4 77C451.7 77 452 77.6 453.7 84.8C457.2 100.1 464.2 108.9 470.6 106C473.9 104.5 475.4 101.8 477.9 93.1C480.5 84.4 480 83 484 111.8C486.9 133 487.9 136.3 491.1 134.4C492.6 133.5 493.5 128.5 496.9 102.2C499.1 85.1 501.2 70.8 501.6 70.4C502.1 70 502.4 70 502.4 70.4C502.4 71.8 507.5 101.4 508 103.3C508.3 104.3 509.5 105 510.9 105C513 105 513.6 103.9 516.6 94.9C518.4 89.3 520.9 83.7 522.1 82.4C525.1 79.2 529.3 79.3 554 83C579.2 86.9 600 87.8 610.2 85.6C624.3 82.6 633.7 76.7 637.5 68.5C639.7 63.7 639.9 60.7 637.9 59C635.9 57.3 632.4 58.7 632.4 61.2C632.4 62.4 631.3 65.2 629.9 67.6C627 72.5 618.9 77.1 609.6 79.1C600.5 81 572.9 79.7 554.4 76.5C545.9 75 535.2 73.7 530.7 73.7C520.8 73.5 518.2 74.9 514.2 83C512.7 86 511.4 88.2 511.4 87.7C511.3 85.4 504.2 44.5 503.8 43.8C503.5 43.4 502.2 43 500.9 43C499.1 43 498.4 43.7 498 45.8C497.5 48.3 490.5 102.2 490.3 105.2C490.1 108.6 488.3 98.8 486.4 83C484.2 64.9 483 61.5 479.7 63.6C478.7 64.2 477 69.5 474.8 78.5C471.3 93.6 470.1 97.5 468.5 98.4C466.8 99.5 461.9 88.3 459.9 79.3L459.2 76H464.8C469.9 76 470.4 75.8 471 73.5C471.3 72.1 471.3 70.6 470.9 70.2C470.5 69.8 467.5 69.3 464.1 69L457.9 68.5L456.7 62.5C455.8 57.6 453.5 38.6 450.9 13.2C450.4 7.8 448.8 5.8 445.5 6.2C443.2 6.5 442.4 7.8 438.1 18.5C431.6 34.5 415.4 71.2 414.3 72.5C413.7 73 410.8 74.2 407.7 75C404.6 75.8 401.6 77.3 401 78.3C399.4 80.9 401.5 83.5 405.2 83.5L408.2 83.5L406.6 86.5C405.6 88.1 402.4 92 399.4 95C392.8 101.8 387.8 103.5 377.5 102.8C366.7 102 355.4 96.2 337.1 82.1C326.3 73.7 326.3 74.4 337.8 71.6C353.8 67.8 368.6 57.4 374.1 46.2C376.4 41.5 376.9 39.2 376.8 33.5C376.7 20.7 369.1 11.2 355.5 6.9C348.3 4.7 334 3.8 326.4 5.1Z" stroke="currentColor" stroke-width="2" stroke-linecap="round" stroke-linejoin="round" />
  <path d="M267.6 6.8C267.1 7.7 266.3 14.1 266 21C265.6 27.9 264.6 40.7 263.8 49.5C263 58.3 262.1 73.9 261.7 84.2C261.2 100.7 261.3 103.2 262.8 105.4C263.7 106.8 265.3 108 266.3 108C270 108 270.6 105.7 269.9 94.3C269.1 81.8 270.5 58.1 273.7 29.3C275 18.2 275.7 8.2 275.2 7.1C274.2 4.4 268.9 4.2 267.6 6.8Z" stroke="currentColor" stroke-width="2" stroke-linecap="round" stroke-linejoin="round" />
  <path d="M205.3 44C206.4 51.4 207.4 58.2 207.6 59C208 60.8 202.1 61.8 191.3 61.9L183.7 62L191.9 42.3C196.4 31.4 200.4 21.6 200.9 20.5C201.8 18.4 201.6 17.3 205.3 44Z" stroke="currentColor" stroke-width="2" stroke-linecap="round" stroke-linejoin="round" />
  <path d="M447.4 49C448.6 58.1 449.6 66.4 449.7 67.5C449.9 69.3 448.9 69.6 440 70.6C434.6 71.3 428.4 72.1 426.3 72.4L422.4 73L426 65.3C427.9 61 432.8 49.9 436.7 40.7L443.9 23.8L444.6 28.2C445 30.5 446.3 39.9 447.4 49Z" stroke="currentColor" stroke-width="2" stroke-linecap="round" stroke-linejoin="round" />
</svg>