<svg xmlns="http://www.w3.org/2000/svg" viewBox="0 0 1200 800" preserveAspectRatio="xMidYMid slice">
  <defs>
    <pattern id="dots" x="0" y="0" width="14" height="14" patternUnits="userSpaceOnUse">
      <circle cx="7" cy="7" r="1.2" fill="#1a1a1a" />
    </pattern>
    <radialGradient id="glow" cx="50%" cy="50%" r="50%">
      <stop offset="0%" stop-color="#00d7ff" stop-opacity="0.3" />
      <stop offset="100%" stop-color="#00d7ff" stop-opacity="0" />
    </radialGradient>
  </defs>
  <rect width="100%" height="100%" fill="#050505" />
  <rect width="100%" height="100%" fill="url(#dots)" />

  <!-- Glow effects behind accent dots -->
  <g fill="url(#glow)">
    <circle cx="320" cy="220" r="40" />
    <circle cx="520" cy="180" r="35" />
    <circle cx="720" cy="200" r="38" />
    <circle cx="920" cy="280" r="42" />
    <circle cx="820" cy="380" r="35" />
    <circle cx="620" cy="420" r="32" />
    <circle cx="420" cy="380" r="35" />
    <circle cx="220" cy="320" r="30" />
    <circle cx="1020" cy="200" r="35" />
  </g>

  <!-- Accent dots matching LiveKit style -->
  <g fill="#00d7ff">
    <circle cx="320" cy="220" r="5" opacity="0.9" />
    <circle cx="340" cy="235" r="3.5" opacity="0.85" />
    <circle cx="520" cy="180" r="4" opacity="0.9" />
    <circle cx="540" cy="195" r="3" opacity="0.8" />
    <circle cx="720" cy="200" r="4.5" opacity="0.9" />
    <circle cx="745" cy="215" r="3" opacity="0.85" />
    <circle cx="920" cy="280" r="5" opacity="0.9" />
    <circle cx="945" cy="295" r="3.5" opacity="0.8" />
    <circle cx="820" cy="380" r="4" opacity="0.9" />
    <circle cx="620" cy="420" r="3.5" opacity="0.85" />
    <circle cx="420" cy="380" r="4" opacity="0.9" />
    <circle cx="220" cy="320" r="3.5" opacity="0.8" />
    <circle cx="1020" cy="200" r="4" opacity="0.85" />
    <circle cx="580" cy="320" r="3" opacity="0.75" />
    <circle cx="480" cy="280" r="2.5" opacity="0.7" />
    <circle cx="680" cy="340" r="3" opacity="0.75" />
    <circle cx="880" cy="340" r="2.5" opacity="0.7" />
    <circle cx="380" cy="280" r="2.5" opacity="0.7" />
  </g>
</svg>